<svg width="28" height="28" viewBox="0 0 28 28" fill="none" xmlns="http://www.w3.org/2000/svg">
<g id="majesticons:chat-line">
<path id="Vector" d="M14 24.5C16.3297 24.4997 18.5932 23.7245 20.434 22.2966C22.2748 20.8687 23.5885 18.8691 24.1682 16.6126C24.7479 14.3562 24.5607 11.971 23.636 9.83261C22.7113 7.69423 21.1018 5.9241 19.0607 4.8009C17.0196 3.67769 14.6629 3.26521 12.3616 3.62838C10.0604 3.99155 7.94526 5.10975 6.34927 6.80694C4.75327 8.50412 3.76705 10.6839 3.54586 13.0031C3.32467 15.3223 3.88107 17.6492 5.12748 19.6175L3.49998 24.5L8.38248 22.8725C10.0619 23.9386 12.0108 24.5032 14 24.5Z" stroke="black" stroke-width="2" stroke-linecap="round" stroke-linejoin="round"/>
</g>
</svg>
