<svg width="24" height="24" viewBox="0 0 24 24" fill="none" xmlns="http://www.w3.org/2000/svg">
<g id="solar:user-outline">
<path id="Vector" d="M5.85341 13.4462L5.85351 13.4461C7.47643 12.5334 9.65226 12 12.0001 12C14.3489 12 16.5237 12.5334 18.1475 13.4461L18.1478 13.4462C19.738 14.342 21.0001 15.735 21.0001 17.5V17.6018V17.602L21.0001 17.6303C21.0012 18.7767 21.0026 20.3411 19.632 21.4578L19.6317 21.458C18.9587 22.0049 18.0354 22.3816 16.8236 22.626L5.85341 13.4462ZM5.85341 13.4462C4.26215 14.342 3.00006 15.735 3.00006 17.5V17.6019M5.85341 13.4462L3.00006 17.6019M3.00006 17.6019V17.602L3.00003 17.6277C2.99897 18.7745 2.99751 20.3403 4.36915 21.4578L4.36923 21.4579C5.04131 22.005 5.96573 22.3816 7.17732 22.626C8.3921 22.8726 9.9655 23 12.0001 23C14.0345 23 15.6068 22.8726 16.8235 22.6261L3.00006 17.6019ZM17.1665 15.1899L17.1666 15.1899C18.4694 15.922 19.0001 16.7786 19.0001 17.5C19.0001 18.8315 18.9461 19.4364 18.3684 19.906L18.368 19.9063C18.0412 20.173 17.4649 20.4563 16.4266 20.6659L16.4264 20.666C15.3921 20.8754 13.9654 21 12.0001 21C10.0346 21 8.60699 20.8754 7.57371 20.666L7.57353 20.6659C6.53535 20.4563 5.95883 20.1731 5.63192 19.9071C5.05395 19.4365 5.00006 18.8313 5.00006 17.5C5.00006 16.7787 5.53165 15.9221 6.83359 15.1899C8.10573 14.4746 9.92992 14 12.0011 14C14.0702 14 15.8944 14.4746 17.1665 15.1899ZM12.0001 1C10.674 1 9.4022 1.52678 8.46452 2.46447C7.52684 3.40215 7.00006 4.67392 7.00006 6C7.00006 7.32608 7.52684 8.59785 8.46452 9.53553C9.4022 10.4732 10.674 11 12.0001 11C13.3261 11 14.5979 10.4732 15.5356 9.53553C16.4733 8.59785 17.0001 7.32608 17.0001 6C17.0001 4.67392 16.4733 3.40215 15.5356 2.46447C14.5979 1.52678 13.3261 1 12.0001 1ZM9.00006 6C9.00006 5.20435 9.31613 4.44129 9.87874 3.87868C10.4413 3.31607 11.2044 3 12.0001 3C12.7957 3 13.5588 3.31607 14.1214 3.87868C14.684 4.44129 15.0001 5.20435 15.0001 6C15.0001 6.79565 14.684 7.55871 14.1214 8.12132C13.5588 8.68393 12.7957 9 12.0001 9C11.2044 9 10.4413 8.68393 9.87874 8.12132C9.31613 7.55871 9.00006 6.79565 9.00006 6Z" fill="black" stroke="black" stroke-width="0.5"/>
</g>
</svg>
