<svg width="28" height="28" viewBox="0 0 28 28" fill="none" xmlns="http://www.w3.org/2000/svg">
<g id="tabler:category">
<path id="Vector" d="M4.66675 4.66675H11.6667V11.6667H4.66675V4.66675ZM16.3334 4.66675H23.3334V11.6667H16.3334V4.66675ZM4.66675 16.3334H11.6667V23.3334H4.66675V16.3334ZM16.3334 19.8334C16.3334 20.7617 16.7022 21.6519 17.3585 22.3083C18.0149 22.9647 18.9052 23.3334 19.8334 23.3334C20.7617 23.3334 21.6519 22.9647 22.3083 22.3083C22.9647 21.6519 23.3334 20.7617 23.3334 19.8334C23.3334 18.9052 22.9647 18.0149 22.3083 17.3585C21.6519 16.7022 20.7617 16.3334 19.8334 16.3334C18.9052 16.3334 18.0149 16.7022 17.3585 17.3585C16.7022 18.0149 16.3334 18.9052 16.3334 19.8334Z" stroke="#130F26" stroke-width="2" stroke-linecap="round" stroke-linejoin="round"/>
</g>
</svg>
